<svg xmlns="http://www.w3.org/2000/svg" xmlns:xlink="http://www.w3.org/1999/xlink" id="visual" viewBox="0 0 900 600" width="900" height="600" version="1.1"><rect x="0" y="0" width="900" height="600" fill="#140021"/><path d="M0 471L129 471L129 474L257 474L257 477L386 477L386 501L514 501L514 461L643 461L643 455L771 455L771 506L900 506L900 464L900 601L900 601L771 601L771 601L643 601L643 601L514 601L514 601L386 601L386 601L257 601L257 601L129 601L129 601L0 601Z" fill="#00ffbe"/><path d="M0 509L129 509L129 510L257 510L257 530L386 530L386 516L514 516L514 504L643 504L643 513L771 513L771 506L900 506L900 527L900 601L900 601L771 601L771 601L643 601L643 601L514 601L514 601L386 601L386 601L257 601L257 601L129 601L129 601L0 601Z" fill="#007f98"/><path d="M0 554L129 554L129 564L257 564L257 545L386 545L386 566L514 566L514 551L643 551L643 558L771 558L771 557L900 557L900 549L900 601L900 601L771 601L771 601L643 601L643 601L514 601L514 601L386 601L386 601L257 601L257 601L129 601L129 601L0 601Z" fill="#001122"/></svg>